<svg width="256" height="256" viewBox="0 0 256 256" fill="none" xmlns="http://www.w3.org/2000/svg">
<path d="M216 95.9995C216.009 81.1695 212.27 66.5779 205.13 53.5798C197.99 40.5817 187.681 29.5988 175.16 21.6512C162.64 13.7036 148.314 9.04917 133.513 8.12013C118.712 7.19109 103.916 10.0176 90.5003 16.3372C77.0842 22.6567 65.4828 32.2643 56.7736 44.2675C48.0644 56.2708 42.5299 70.2804 40.6842 84.995C38.8385 99.7097 40.7415 114.652 46.2163 128.435C51.6912 142.217 60.5603 154.392 72 163.83V240C71.999 241.364 72.347 242.706 73.0109 243.898C73.6747 245.09 74.6324 246.092 75.7928 246.81C76.9533 247.527 78.2779 247.936 79.6409 247.997C81.0039 248.058 82.3599 247.77 83.58 247.16L128 225L172.43 247.21C173.544 247.743 174.765 248.013 176 248C178.122 248 180.157 247.157 181.657 245.656C183.157 244.156 184 242.121 184 240V163.83C194.009 155.586 202.07 145.228 207.602 133.501C213.135 121.773 216.003 108.967 216 95.9995ZM56 95.9995C56 81.7593 60.2227 67.8388 68.1342 55.9985C76.0457 44.1581 87.2905 34.9297 100.447 29.4802C113.603 24.0307 128.08 22.6048 142.047 25.383C156.013 28.1611 168.842 35.0185 178.912 45.0878C188.981 55.1572 195.838 67.9864 198.617 81.953C201.395 95.9197 199.969 110.396 194.519 123.553C189.07 136.709 179.841 147.954 168.001 155.865C156.161 163.777 142.24 168 128 168C108.911 167.978 90.6097 160.386 77.1117 146.888C63.6137 133.39 56.0212 115.089 56 95.9995ZM168 227.06L131.57 208.85C130.459 208.293 129.233 208.004 127.99 208.004C126.747 208.004 125.521 208.293 124.41 208.85L88 227.06V174.37C100.384 180.699 114.093 183.999 128 183.999C141.907 183.999 155.616 180.699 168 174.37V227.06ZM128 152C139.076 152 149.903 148.715 159.112 142.562C168.321 136.408 175.499 127.662 179.737 117.43C183.976 107.197 185.085 95.9374 182.924 85.0745C180.763 74.2115 175.43 64.2333 167.598 56.4015C159.766 48.5698 149.788 43.2363 138.925 41.0755C128.062 38.9148 116.802 40.0238 106.57 44.2623C96.3371 48.5008 87.5911 55.6784 81.4377 64.8876C75.2844 74.0967 72 84.9238 72 95.9995C72.0159 110.847 77.921 125.081 88.4196 135.58C98.9182 146.079 113.153 151.984 128 152ZM128 55.9995C135.911 55.9995 143.645 58.3455 150.223 62.7407C156.801 67.136 161.928 73.3831 164.955 80.6922C167.983 88.0012 168.775 96.0439 167.231 103.803C165.688 111.562 161.878 118.69 156.284 124.284C150.69 129.878 143.563 133.688 135.804 135.231C128.044 136.774 120.002 135.982 112.693 132.955C105.384 129.927 99.1365 124.8 94.7412 118.222C90.346 111.644 88 103.911 88 95.9995C88 85.3909 92.2143 75.2167 99.7157 67.7153C107.217 60.2138 117.391 55.9995 128 55.9995Z" fill="black"/>
</svg>
